<svg width="384" height="512" xmlns="http://www.w3.org/2000/svg">

 <g>
  <title _mstHash="486" _mstTextHash="5637814">第 1 层</title>
  <path opacity="0.75" id="svg_1" d="m163.1,257.8c-7.812,-7.812 -20.47,-7.812 -28.28,0l-48,48c-7.812,7.812 -7.812,20.5 0,28.31l48,48c3.98,3.99 9.08,5.89 14.18,5.89s10.23,-1.938 14.14,-5.844c7.812,-7.812 7.812,-20.5 0,-28.31l-33.84,-33.846l33.86,-33.84c6.94,-7.86 6.94,-20.46 -0.06,-28.36zm203.2,-164.42l-74.63,-74.64c-12.07,-11.998 -28.37,-18.74 -45.27,-18.74l-181.4,0c-35.35,0 -64,28.65 -64,64l0.0065,384c0,35.34 28.65,64 64,64l255.9935,0c35.2,0 64,-28.8 64,-64l0,-309.4c0,-16.9 -6.7,-33.2 -18.7,-45.22zm-29.3,354.62c0,8.836 -7.164,16 -16,16l-255.98,0c-8.838,0 -16,-7.164 -16,-16l-0.02,-383.87c0,-8.836 7.164,-16 16,-16l160,0l0,79.87c0,17.67 14.33,32 32,32l79.1,0l0,288l0.9,0zm-114.1,-190.2c-7.812,7.812 -7.812,20.5 0,28.31l33.8,33.89l-33.86,33.84c-7.812,7.812 -7.812,20.5 0,28.31c3.96,3.95 9.06,5.85 14.16,5.85s10.23,-1.938 14.14,-5.844l48,-48c7.812,-7.812 7.812,-20.5 0,-28.31l-48,-48c-7.84,-7.846 -20.44,-7.846 -28.24,-0.046z" fill="white"/>
 </g>
</svg>