<svg width="512" height="512" xmlns="http://www.w3.org/2000/svg">

 <g>
  <title _mstHash="534" _mstTextHash="5637814">第 1 层</title>
  <path opacity="0.75" id="svg_1" d="m495.6,49.23l-32.82,-32.82c-10.98,-10.939 -25.28,-16.41 -39.68,-16.41c-14.33,0 -28.66,5.469 -39.6,16.41l-216,216.09c-8.4,7.5 -12.7,17 -15.1,27.3l-24.1,107.4c-1.8,8.9 5.1,16.8 12.8,16.8c0.916,0 1.852,-0.0918 2.797,-0.2813c0,0 74.03,-15.71 107.4,-23.56c10.1,-2.377 19.13,-7.459 26.46,-14.79l217,-217c22.743,-21.8687 22.643,-57.2687 0.843,-79.1387zm-33.9,45.17l-217,217c-1.1,1.1 -2.2,1.7 -3.5,2c-13.7,3.227 -34.65,7.857 -54.3,12.14l12.41,-55.2c0.29,-1.44 0.99,-2.84 2.09,-3.84l216.1,-216.1c1.9,-1.99 4.1,-2.4 5.6,-2.4s3.715,0.4062 5.65,2.342l32.82,32.83c3.23,3.168 3.23,8.098 0.13,11.228zm-37.7,193.6c-13.25,0 -24,10.75 -24,24l0,128c0,13.23 -10.78,24 -24,24l-304,0c-13.22,0 -24,-10.77 -24,-24l0,-304c0,-13.23 10.78,-24 24,-24l144,0c13.25,0 24,-10.75 24,-24s-10.7,-24 -24,-24l-144.9,-0.01c-38.79,0 -71.1,32.3 -71.1,71.11l0,304c0,40.6 32.31,72.9 71.1,72.9l303.1,0c39.69,0 71.1,-32.3 71.1,-72l2.7,-128c0,-13.2 -10.7,-24 -24,-24z" fill="white"/>
 </g>
</svg>